# xmcd
#
# Track frame offsets: 
#        150
#        15797
#        33540
#        36459
#        52521
#        67485
#        73268
#        92606
#        111507
#        116213
#        132122
#        134071
#        151141
#        152656
#        172792
#
# Disc length: 2512 seconds
#
# Revision: 0
# Processed by: cddbd v1.5.2PL0 Copyright (c) Steve Scherf et al.
# Submitted via: ExactAudioCopyFreeDBPlugin 1.0
#
DISCID=cd09ce0f
DTITLE=Estelle - All of Me
DYEAR=2012
DGENRE=R&B
TTITLE0=The Life
TTITLE1=International (Serious) (feat. Chris Brown and Trey Songz)
TTITLE2=You and I
TTITLE3=Love the Way We Used To
TTITLE4=Cold Crush
TTITLE5=Don't Break It
TTITLE6=Break My Heart (feat. Rick Ross)
TTITLE7=Thank You
TTITLE8=Who We Are
TTITLE9=Wonderful Life
TTITLE10=Found My Way...
TTITLE11=Back To Love
TTITLE12=Blue Skies
TTITLE13=Speak Ya Mind
TTITLE14=Do My Thing (feat. Janelle Monáe)
EXTD=
EXTT0=
EXTT1=
EXTT2=
EXTT3=
EXTT4=
EXTT5=
EXTT6=
EXTT7=
EXTT8=
EXTT9=
EXTT10=
EXTT11=
EXTT12=
EXTT13=
EXTT14=
PLAYORDER=
